<svg width="24" height="24" viewBox="0 0 24 24" fill="none" xmlns="http://www.w3.org/2000/svg">
<path fill-rule="evenodd" clip-rule="evenodd" d="M1.46448 19.4645C0.488172 20.4408 0.488172 22.0237 1.46448 23C2.44079 23.9763 4.02371 23.9763 5.00002 23L12.2322 15.7678L19.4645 23C20.4408 23.9763 22.0237 23.9763 23 23C23.9763 22.0237 23.9763 20.4408 23 19.4645L15.7678 12.2323L23 5.00001C23.9763 4.02369 23.9763 2.44078 23 1.46447C22.0237 0.488161 20.4408 0.48816 19.4645 1.46447L12.2322 8.69672L5.00001 1.46448C4.02369 0.488172 2.44078 0.488172 1.46447 1.46448C0.488161 2.44079 0.488161 4.02371 1.46447 5.00002L8.6967 12.2323L1.46448 19.4645Z" fill="black"/>
</svg>
